<?xml version="1.0" encoding="UTF-8" standalone="no"?>
<svg width="770" height="304" viewBox="0 0 770 304" version="1.1" xmlns="http://www.w3.org/2000/svg">
  <defs>
    <clipPath id="clipRounded">
      <rect x="0" y="0" width="770" height="304" rx="22" ry="22"/>
    </clipPath>
  </defs>

  <g clip-path="url(#clipRounded)">
    <rect x="0" y="0" width="770" height="304" fill="#ffffff"/>

    <text x="28" y="42" font-family="DejaVu Sans, Arial, sans-serif" font-size="22" font-weight="700" fill="#26324B">
      MGI (activo): restricciones + control
    </text>

    <g transform="translate(28,72)">
      <rect x="0" y="0" width="16" height="16" rx="4" fill="#FF4B4B"/>
      <path d="M4.1 8.6 L7 11.4 L12.1 5.1" fill="none" stroke="#ffffff" stroke-width="2.2" stroke-linecap="round" stroke-linejoin="round"/>
      <text x="26" y="13" font-family="DejaVu Sans, Arial, sans-serif" font-size="13.5" fill="#334155">
        Usar MGI activo (recomendado para validación científica)
      </text>
    </g>

    <g transform="translate(28,110)">
      <rect x="0" y="0" width="16" height="16" rx="4" fill="#FF4B4B"/>
      <path d="M4.1 8.6 L7 11.4 L12.1 5.1" fill="none" stroke="#ffffff" stroke-width="2.2" stroke-linecap="round" stroke-linejoin="round"/>
      <text x="26" y="13" font-family="DejaVu Sans, Arial, sans-serif" font-size="13.5" fill="#334155">
        Guardar bitácora por iteración (CSV)
      </text>
    </g>

    <text x="28" y="164" font-family="DejaVu Sans, Arial, sans-serif" font-size="13" fill="#334155">
      Headroom (sample peak ceiling, dBFS)
    </text>

    <g>
      <line x1="28" y1="196" x2="730" y2="196" stroke="#E5E9F0" stroke-width="4" stroke-linecap="round"/>
      <line x1="28" y1="196" x2="639" y2="196" stroke="#FF4B4B" stroke-width="4" stroke-linecap="round"/>
      <circle cx="639" cy="196" r="7" fill="#FF4B4B"/>
      <text x="635" y="183" text-anchor="middle" font-family="DejaVu Sans Mono, monospace" font-size="12" fill="#FF4B4B">−2.00</text>
      <text x="28" y="221" font-family="DejaVu Sans Mono, monospace" font-size="12" fill="#2F3643">−12.00</text>
      <text x="730" y="221" text-anchor="end" font-family="DejaVu Sans Mono, monospace" font-size="12" fill="#2F3643">−0.50</text>
    </g>

    <text x="28" y="262" font-family="DejaVu Sans, Arial, sans-serif" font-size="13" fill="#334155">
      Tolerancia RMS vs x0 (dB)
    </text>

    <g>
      <line x1="28" y1="294" x2="730" y2="294" stroke="#E5E9F0" stroke-width="4" stroke-linecap="round"/>
      <line x1="28" y1="294" x2="249" y2="294" stroke="#FF4B4B" stroke-width="4" stroke-linecap="round"/>
      <circle cx="249" cy="294" r="7" fill="#FF4B4B"/>
      <text x="249" y="281" text-anchor="middle" font-family="DejaVu Sans Mono, monospace" font-size="12" fill="#FF4B4B">6.00</text>
    </g>
  </g>
</svg>
