<svg xmlns="http://www.w3.org/2000/svg" width="662" height="445" viewBox="0 0 662 445" fill="none">
    
    <rect width="662" height="445" rx="8" fill="#F8FAFC"/>
    <g>
      
      <path d="M 331 121
C 347 121, 359 137, 372 151
C 382 162, 392 166, 392 181
C 392 196, 381 202, 371 213
C 357 228, 347 240, 331 240
C 315 240, 305 228, 291 213
C 281 202, 270 196, 270 181
C 270 166, 280 161, 291 151
C 304 138, 315 121, 331 121
Z" fill="none" stroke="#22D3EE" stroke-width="4.5" stroke-linecap="round" stroke-linejoin="round"/>
      <text x="331.0" y="294" text-anchor="middle"
            font-family="Montserrat, Poppins, Arial, sans-serif"
            font-size="36" font-weight="700" letter-spacing="0.5"
            fill="#0B1020">TEXTURAS SONORAS</text>
      <text x="331.0" y="321" text-anchor="middle"
            font-family="Montserrat, Poppins, Arial, sans-serif"
            font-size="14" font-weight="500" letter-spacing="5.2"
            fill="#1E293B">SAMPLE TO TEXTURE</text>
      <rect x="248" y="334" width="166" height="3" rx="1.5" fill="#F59E0B" opacity="0.95"/>
    </g>
    </svg>